<svg xmlns="http://www.w3.org/2000/svg" viewBox="0 0 66 66"><path fill="#ef4a51" d="M54.3 34.24c0 1.48-.17 2.93-.51 4.32-1.1 4.64-3.93 8.71-7.87 11.68L44.72 61h-9.04v-6.17c-1.81.38-3.7.58-5.65.58s-3.84-.2-5.65-.58V61h-9.03l-1.2-10.75c-3.27-2.46-5.78-5.68-7.17-9.34l-2.95-.41c-.96-.15-1.67-.96-1.67-1.92v-8.77c0-1.07.87-1.94 1.94-1.94h2.55c1.09-3.01 2.92-5.73 5.31-7.99l-4.47-7.93s4.13-.91 10.69 1.75c.72.28 1.46.62 2.24 1 2.89-1.06 6.06-1.64 9.4-1.64 13.41 0 24.28 9.49 24.28 21.18z"/><path fill="#fff" d="M54.3 34.24c0 1.48-.17 2.93-.51 4.32-3.98 4.69-9.92 7.67-16.55 7.67-12 0-21.73-9.74-21.73-21.73 0-3.94 1.05-7.62 2.88-10.8.72.28 1.46.62 2.24 1 2.89-1.06 6.06-1.64 9.4-1.64 13.4 0 24.27 9.49 24.27 21.18z" opacity=".3"/><path d="M44.71 61.98h-9.04c-.54 0-.97-.43-.97-.97v-5c-3.09.51-6.28.51-9.37 0v5c0 .54-.43.97-.97.97h-9.03c-.49 0-.91-.37-.96-.86l-1.16-10.34a24.05 24.05 0 0 1-3.24-3.05.977.977 0 0 1 .09-1.37.977.977 0 0 1 1.37.09c.97 1.11 2.08 2.13 3.28 3.04.21.16.35.4.38.67l1.11 9.89h7.19v-5.2c0-.29.13-.57.36-.75.23-.18.53-.25.81-.2 3.57.75 7.34.75 10.91 0 .28-.06.58.01.81.2.23.18.36.46.36.75v5.2h7.2l1.11-9.9c.03-.27.17-.51.38-.67 5.09-3.84 8-9.39 8-15.23 0-11.14-10.46-20.21-23.31-20.21-3.15 0-6.2.53-9.06 1.58-.25.09-.52.08-.76-.04-5.08-2.51-8.97-2.84-10.92-2.79l3.74 6.63c.22.39.14.88-.18 1.18-2.3 2.17-4.05 4.8-5.07 7.61-.14.38-.5.64-.91.64H4.3a.97.97 0 0 0-.97.97v8.77c0 .48.35.89.84.96l2.93.42c.35.05.64.29.77.62.45 1.17 1.02 2.32 1.71 3.41a.972.972 0 0 1-1.64 1.04c-.66-1.03-1.22-2.11-1.68-3.22l-2.38-.34c-1.45-.22-2.5-1.43-2.5-2.88v-8.77c0-1.6 1.3-2.91 2.91-2.91h1.88c1.05-2.63 2.69-5.09 4.77-7.19l-4.1-7.28a.955.955 0 0 1-.04-.87.95.95 0 0 1 .68-.55c.22-.05 5.35-1.12 13.19 2.64 2.97-1.03 6.1-1.56 9.34-1.56 13.92 0 25.25 9.94 25.25 22.15 0 6.33-3.07 12.33-8.44 16.53l-1.16 10.35c-.05.47-.46.84-.95.84z"/><circle cx="13.93" cy="26.48" r="1.97" fill="#fff"/><path d="M13.93 29.42c-1.62 0-2.94-1.32-2.94-2.94s1.32-2.94 2.94-2.94 2.94 1.32 2.94 2.94-1.32 2.94-2.94 2.94zm0-3.95c-.55 0-1 .45-1 1s.45 1 1 1 1-.45 1-1-.45-1-1-1z"/><path fill="#e2e2e2" d="M39.99 23.36c-.5.9-1.44 1.41-2.4 1.41-.45 0-.91-.11-1.33-.35-.61-.34-1.21-.63-1.81-.86h-.01c-2.81-1.11-5.6-1.11-8.41 0-.6.23-1.21.52-1.82.86a2.73 2.73 0 0 1-3.72-1.06 2.73 2.73 0 0 1 1.06-3.72c.07-.04.13-.07.19-.11h.01c1.94-1.06 3.89-1.76 5.84-2.08.18-.04.37-.07.56-.09 1.4-.19 2.78-.19 4.18 0 2.14.28 4.28 1 6.4 2.16h.01c.07.04.13.07.19.11 1.32.74 1.8 2.41 1.06 3.73z"/><path d="M37.6 25.74c-.65 0-1.28-.17-1.82-.48-.53-.3-1.04-.54-1.53-.74l-.16-.06c-2.59-1.02-5.11-1.02-7.7 0-.55.21-1.13.49-1.71.81-.86.48-1.86.6-2.82.33-.95-.27-1.74-.9-2.23-1.76-1-1.78-.35-4.05 1.43-5.04l.36-.19c1.99-1.07 4.01-1.77 6-2.1.17-.04.39-.07.62-.1 1.44-.2 2.93-.2 4.41 0 2.18.29 4.37 1.01 6.51 2.15h.01l.43.24a3.708 3.708 0 0 1 1.42 5.04 3.673 3.673 0 0 1-3.22 1.9zm-2.97-3.16.18.07c.62.24 1.26.54 1.93.92.81.47 1.94.15 2.41-.68.23-.41.29-.89.16-1.34a1.78 1.78 0 0 0-.84-1.06l-.2-.1c-2-1.1-4.04-1.79-6.06-2.05-1.32-.18-2.6-.18-3.92 0-.2.02-.35.04-.5.08-1.86.31-3.73.97-5.57 1.98l-.21.12c-.86.54-1.12 1.57-.67 2.39.23.41.61.71 1.06.84.45.13.93.07 1.34-.16.66-.37 1.31-.68 1.95-.92 2.96-1.19 5.97-1.21 8.94-.09zm23.04 14.8c-1.93 0-3.53-.45-3.65-.49a.973.973 0 0 1-.66-1.2c.15-.51.69-.81 1.2-.66.04.01 4.07 1.15 6.45-.39.94-.61 1.48-1.56 1.67-2.9.07-.53.57-.9 1.09-.83.53.07.9.56.83 1.09-.27 1.91-1.12 3.35-2.54 4.27-1.33.86-2.95 1.11-4.39 1.11z"/><path fill="#ffab03" d="M40 14.75c0 .38-.02.76-.07 1.12-.01.12-.03.24-.05.36-.03.19-.06.39-.12.58-.03.18-.07.36-.13.53-.05.18-.11.37-.16.55-.08.22-.16.45-.25.66-.09.19-.17.39-.27.57-.07.14-.14.27-.21.4h-.01c-.01.04-.03.07-.05.11-.01.02-.02.03-.03.05-.11.18-.21.36-.34.53-.12.17-.23.34-.37.5-.13.16-.25.32-.4.48-.14.16-.27.31-.43.46-.15.15-.29.29-.46.43-.16.14-.31.27-.48.4-.14.11-.27.2-.41.3-.38.25-.78.49-1.18.7-.05.02-.1.05-.16.08-2.81-1.11-5.6-1.11-8.41 0-1-.48-1.91-1.12-2.69-1.91-.22-.22-.43-.46-.63-.69-.1-.12-.2-.25-.3-.38-.24-.34-.48-.69-.67-1.05-.11-.18-.2-.37-.3-.55-.2-.43-.39-.86-.52-1.33a9.88 9.88 0 0 1-.44-2.9c0-.49.04-.98.11-1.45-.01-.01-.01-.02 0-.03.12-.71.3-1.39.54-2.04.17-.44.37-.85.6-1.26.11-.2.23-.4.36-.59.13-.19.26-.38.4-.56.15-.18.29-.36.45-.53.77-.85 1.68-1.58 2.71-2.13.2-.11.41-.21.62-.31.16-.07.3-.14.47-.19.31-.12.63-.22.95-.31l.35-.09c.21-.06.43-.1.65-.13.5-.09 1.03-.13 1.56-.13.67 0 1.33.07 1.96.19 1.91.4 3.62 1.34 4.94 2.67A9.671 9.671 0 0 1 40 14.75z"/><path fill="#fff" d="M40 14.75c0 1.79-.49 3.49-1.35 4.94a9.74 9.74 0 0 1-3.97.84c-5.38 0-9.75-4.38-9.75-9.76 0-1.79.48-3.48 1.34-4.93C27.48 5.3 28.83 5 30.25 5 35.62 4.99 40 9.37 40 14.75z" opacity=".3"/><path d="M34.46 24.52c-.12 0-.25-.02-.36-.07-2.59-1.02-5.11-1.02-7.7 0-.25.1-.53.09-.78-.03a10.61 10.61 0 0 1-2.95-2.1 9.97 9.97 0 0 1-.68-.75c-.11-.13-.22-.28-.33-.41-.24-.33-.44-.64-.63-.96-.05-.08-.09-.13-.12-.19-.12-.2-.23-.41-.33-.62-.26-.55-.45-1.02-.58-1.47a10.401 10.401 0 0 1-.37-4.65c0-.08.01-.15.03-.23.12-.73.31-1.46.58-2.16.17-.45.39-.91.66-1.39.1-.2.24-.41.38-.63.14-.22.29-.42.44-.62.18-.22.33-.41.5-.6.84-.95 1.84-1.75 2.98-2.35a14 14 0 0 1 .67-.34l.11-.05c.14-.06.29-.12.44-.18.32-.12.67-.24 1.02-.33l.37-.09c.23-.06.49-.11.76-.15 1.03-.2 2.56-.2 3.85.08 2.05.42 3.93 1.43 5.42 2.93 2.03 2.04 3.14 4.73 3.14 7.58 0 .44-.03.86-.08 1.25-.01.09-.03.25-.05.39-.03.22-.07.43-.13.64-.04.22-.09.42-.15.63-.03.14-.1.34-.16.54a10.146 10.146 0 0 1-.59 1.39c-.08.15-.16.31-.24.45 0 .01-.08.15-.09.15-.11.19-.23.39-.38.6-.12.17-.25.36-.41.56-.12.16-.27.34-.44.52-.12.15-.28.32-.47.5-.15.15-.31.31-.5.47-.16.14-.32.28-.5.42-.14.11-.29.22-.44.32-.49.33-.91.57-1.31.78l-.54-.81.45.86c-.15.06-.34.12-.49.12zm0-.97zm-12.89-10.2c0 .03-.01.07-.01.1-.07.42-.1.86-.1 1.3 0 .9.13 1.77.4 2.61.11.38.25.74.47 1.2.08.16.16.32.25.48.06.08.09.13.11.17.16.28.33.54.52.79.07.09.17.22.26.32.18.22.38.43.57.62.6.61 1.29 1.12 2.06 1.54 2.75-.98 5.53-.98 8.29 0 .29-.16.56-.32.86-.52.1-.07.22-.16.35-.26.15-.12.29-.24.42-.36.17-.14.3-.27.42-.39.15-.14.25-.25.36-.38.17-.18.27-.31.38-.45.14-.17.23-.31.33-.45.13-.18.22-.33.31-.48l.06-.1c.1-.18.15-.28.21-.38.11-.2.18-.37.26-.55.07-.17.15-.38.22-.59.05-.14.1-.31.14-.48.06-.19.09-.31.11-.44l.03-.13c.04-.14.06-.28.08-.43.02-.12.04-.22.04-.31.05-.35.07-.69.07-1.05 0-2.33-.92-4.54-2.58-6.21a8.626 8.626 0 0 0-4.44-2.4c-1.06-.23-2.25-.24-3.14-.07-.24.03-.41.06-.58.11l-.37.09c-.27.07-.56.17-.85.28-.12.04-.22.09-.32.13l-.1.04c-.18.08-.37.18-.56.28-.92.49-1.74 1.13-2.43 1.91-.15.17-.28.33-.41.49-.11.15-.23.31-.35.49-.11.17-.22.34-.31.51-.24.42-.41.79-.55 1.15-.23.63-.39 1.22-.48 1.82z"/><path d="M30.24 20.01c-1.72 0-3.12-1.4-3.12-3.12 0-.54.43-.97.97-.97s.97.43.97.97c0 .65.53 1.18 1.18 1.18s1.18-.53 1.18-1.18c0-.65-.53-1.18-1.18-1.18-1.72 0-3.12-1.4-3.12-3.12s1.4-3.12 3.12-3.12 3.12 1.4 3.12 3.12c0 .54-.43.97-.97.97s-.97-.43-.97-.97c0-.65-.53-1.18-1.18-1.18s-1.18.53-1.18 1.18c0 .65.53 1.18 1.18 1.18 1.72 0 3.12 1.4 3.12 3.12s-1.4 3.12-3.12 3.12z"/><path d="M30.24 11.42c-.54 0-.97-.43-.97-.97V8.97c0-.54.43-.97.97-.97s.97.43.97.97v1.48c0 .54-.43.97-.97.97zm0 10.07c-.54 0-.97-.43-.97-.97v-1.48c0-.54.43-.97.97-.97s.97.43.97.97v1.48c0 .54-.43.97-.97.97z"/><path fill="#ffab03" d="M60.4 47.66v5.28c0 .51-.42.93-.93.93H35.85c-.51 0-.93-.42-.93-.93v-5.28c0-.51.42-.93.93-.93h23.62c.51 0 .93.41.93.93z"/><path fill="#fff" d="M60.4 47.66v2.92H41.99c-.51 0-.93-.42-.93-.93v-2.92h18.41c.51 0 .93.41.93.93z" opacity=".3"/><path d="M59.47 54.84H35.86a1.9 1.9 0 0 1-1.9-1.9v-5.28c0-1.05.85-1.9 1.9-1.9h9.92c.54 0 .97.43.97.97s-.43.97-.97.97h-9.92l.04 5.24 23.58-.04-.04-5.24-8.81.04c-.54 0-.97-.43-.97-.97s.43-.97.97-.97h8.85c1.05 0 1.9.85 1.9 1.9v5.28c-.01 1.05-.86 1.9-1.91 1.9z"/><path d="M41.16 54.84c-.54 0-.97-.43-.97-.97v-7.14c0-.54.43-.97.97-.97s.97.43.97.97v7.14c0 .54-.43.97-.97.97zm6.5 0c-.54 0-.97-.43-.97-.97v-7.14c0-.54.43-.97.97-.97s.97.43.97.97v7.14c0 .54-.43.97-.97.97zm6.5 0c-.54 0-.97-.43-.97-.97v-7.14c0-.54.43-.97.97-.97s.97.43.97.97v7.14c0 .54-.43.97-.97.97z"/><path fill="#ffab03" d="M57.07 54.8v5.28c0 .51-.42.93-.93.93H32.53c-.51 0-.93-.42-.93-.93V54.8c0-.51.42-.93.93-.93h23.62c.51 0 .92.42.92.93z"/><path fill="#fff" d="M57.07 54.8v2.92H38.66c-.51 0-.93-.42-.93-.93v-2.92h18.41c.52 0 .93.42.93.93z" opacity=".3"/><path d="M56.14 61.98H32.53a1.9 1.9 0 0 1-1.9-1.9V54.8c0-1.05.85-1.9 1.9-1.9h9.92c.54 0 .97.43.97.97s-.43.97-.97.97h-9.92l.04 5.24 23.58-.04-.05-5.24-8.81.04c-.54 0-.97-.43-.97-.97s.43-.97.97-.97h8.85c1.05 0 1.9.85 1.9 1.9v5.28a1.9 1.9 0 0 1-1.9 1.9z"/><path d="M37.83 61.98c-.54 0-.97-.43-.97-.97v-7.14c0-.54.43-.97.97-.97s.97.43.97.97v7.14c0 .54-.43.97-.97.97zm6.5 0c-.54 0-.97-.43-.97-.97v-7.14c0-.54.43-.97.97-.97s.97.43.97.97v7.14c0 .54-.43.97-.97.97zm6.5 0c-.54 0-.97-.43-.97-.97v-7.14c0-.54.43-.97.97-.97s.97.43.97.97v7.14c0 .54-.43.97-.97.97z"/><path fill="#ffab03" d="M63.31 40.52v5.28c0 .51-.42.93-.93.93H38.76c-.51 0-.93-.42-.93-.93v-5.28c0-.51.42-.93.93-.93h23.62c.51 0 .93.41.93.93z"/><path fill="#fff" d="M63.31 40.52v2.92H44.9c-.51 0-.93-.42-.93-.93v-2.92h18.41c.51 0 .93.41.93.93z" opacity=".3"/><path d="M62.38 47.7H38.76a1.9 1.9 0 0 1-1.9-1.9v-5.28c0-1.05.85-1.9 1.9-1.9h9.92c.54 0 .97.43.97.97s-.43.97-.97.97h-9.92l.04 5.24 23.58-.04-.04-5.24-8.81.04c-.54 0-.97-.43-.97-.97s.43-.97.97-.97h8.85c1.05 0 1.9.85 1.9 1.9v5.28a1.9 1.9 0 0 1-1.9 1.9z"/><path d="M44.07 47.7c-.54 0-.97-.43-.97-.97v-7.14c0-.54.43-.97.97-.97s.97.43.97.97v7.14c0 .53-.43.97-.97.97zm6.5 0c-.54 0-.97-.43-.97-.97v-7.14c0-.54.43-.97.97-.97s.97.43.97.97v7.14c0 .53-.43.97-.97.97zm6.5 0c-.54 0-.97-.43-.97-.97v-7.14c0-.54.43-.97.97-.97s.97.43.97.97v7.14c0 .53-.43.97-.97.97z"/></svg>