<svg xmlns="http://www.w3.org/2000/svg" viewBox="0 0 500 500"><path fill="#383838" d="M50 374V126c0-42 34-76 76-76h248c42 0 76 34 76 76v248c0 42-34 76-76 76H126c-42 0-76-34-76-76z"/><path fill="#1e1e1e" d="M86.9 363.8V136.2c0-27.2 22.1-49.3 49.3-49.3h227.6c27.2 0 49.3 22.1 49.3 49.3v227.6c0 27.2-22.1 49.3-49.3 49.3H136.2c-27.2 0-49.3-22.1-49.3-49.3z"/><path fill="#636363" d="M86.2 193.1v-61.4c0-25.2 20.4-45.6 45.6-45.6h236.3c25.2 0 45.6 20.4 45.6 45.6v61.4H86.2z"/><circle cx="262.4" cy="146.6" r="24.7" fill="#262626" transform="rotate(-45.001 262.364 146.567)"/><path fill="#bdc3c7" d="M277.3 136.7l-10.9 10.9c-1.4 1.4-3.6 1.4-4.9 0-1.4-1.4-1.4-3.6 0-4.9l10.9-10.9c1.4-1.4 3.6-1.4 4.9 0 1.4 1.4 1.4 3.6 0 4.9z"/><circle cx="335.7" cy="146.6" r="24.7" fill="#262626" transform="rotate(-45.001 335.71 146.568)"/><path fill="#bdc3c7" d="M350.7 136.7l-10.9 10.9c-1.4 1.4-3.6 1.4-4.9 0-1.4-1.4-1.4-3.6 0-4.9l10.9-10.9c1.4-1.4 3.6-1.4 4.9 0 1.3 1.4 1.3 3.6 0 4.9z"/><circle cx="189" cy="146.6" r="24.7" fill="#262626" transform="rotate(-45.001 189.019 146.567)"/><path fill="#bdc3c7" d="M204 136.7l-10.9 10.9c-1.4 1.4-3.6 1.4-4.9 0-1.4-1.4-1.4-3.6 0-4.9l10.9-10.9c1.4-1.4 3.6-1.4 4.9 0 1.3 1.4 1.3 3.6 0 4.9z"/><circle cx="389.3" cy="132.8" r="9" fill="#262626"/><circle cx="389.3" cy="159.8" r="9" fill="#262626"/><path fill="#383838" d="M132.6 170.1h-19.8c-6.1 0-11.1-5-11.1-11.1v-23c0-6.1 5-11.1 11.1-11.1h19.8c6.1 0 11.1 5 11.1 11.1v23c0 6.1-5 11.1-11.1 11.1z"/><path fill="#ef717a" d="M129.9 160.3h-14.5c-2.6 0-4.7-2.1-4.7-4.7v-16.3c0-2.6 2.1-4.7 4.7-4.7h14.5c2.6 0 4.7 2.1 4.7 4.7v16.3c0 2.6-2.1 4.7-4.7 4.7z"/><path fill="#bec5d3" d="M280.6 317.4h-61.2c-9.2 0-16.6-7.4-16.6-16.6v-12.4c0-9.2 7.4-16.6 16.6-16.6h61.2c9.2 0 16.6 7.4 16.6 16.6v12.4c0 9.1-7.5 16.6-16.6 16.6z"/></svg>