<svg xmlns="http://www.w3.org/2000/svg" viewBox="0 0 500 500"><path fill="#5b48a2" d="M50 374V126c0-42 34-76 76-76h248c42 0 76 34 76 76v248c0 42-34 76-76 76H126c-42 0-76-34-76-76z"/><path fill="#745ec5" d="M69 369.9V130.1C69 96.4 96.4 69 130.1 69h239.8c33.8 0 61.1 27.4 61.1 61.1v239.8c0 33.8-27.4 61.1-61.1 61.1H130.1C96.4 431 69 403.6 69 369.9z"/><path fill="#99abd5" d="m217.9 398.4-30.3-52.5c-.4-.6-.4-1.4 0-2l30.3-52.5c.4-.6 1-1 1.7-1h60.7c.7 0 1.4.4 1.7 1l30.3 52.5c.4.6.4 1.4 0 2L282 398.4c-.4.6-1 1-1.7 1h-60.7c-.7 0-1.3-.4-1.7-1z"/><circle cx="250" cy="344.9" r="40.6" fill="#f9f9f9"/><path fill="#a79ae8" d="m468.8 284.8-18.8-5.4v87.2l18.8-5.4c1.9-.5 3.2-2.3 3.2-4.3V289c0-2-1.3-3.7-3.2-4.2zM31.2 211.2l18.8 5.4v-87.2l-18.8 5.4c-1.9.5-3.2 2.3-3.2 4.3V207c0 2 1.3 3.7 3.2 4.2z"/><path fill="#534c7c" d="M126.6 255.8c-6.5 0-11.8-5.3-11.8-11.8V110.7c0-6.5 5.3-11.8 11.8-11.8 6.5 0 11.8 5.3 11.8 11.8V244c0 6.5-5.3 11.8-11.8 11.8zM189.1 255.8c-6.5 0-11.8-5.3-11.8-11.8V110.7c0-6.5 5.3-11.8 11.8-11.8 6.5 0 11.8 5.3 11.8 11.8V244c0 6.5-5.3 11.8-11.8 11.8zM251.6 255.8c-6.5 0-11.8-5.3-11.8-11.8V110.7c0-6.5 5.3-11.8 11.8-11.8 6.5 0 11.8 5.3 11.8 11.8V244c0 6.5-5.3 11.8-11.8 11.8zM314.1 255.8c-6.5 0-11.8-5.3-11.8-11.8V110.7c0-6.5 5.3-11.8 11.8-11.8 6.5 0 11.8 5.3 11.8 11.8V244c0 6.5-5.3 11.8-11.8 11.8zM376.6 255.8c-6.5 0-11.8-5.3-11.8-11.8V110.7c0-6.5 5.3-11.8 11.8-11.8 6.5 0 11.8 5.3 11.8 11.8V244c0 6.5-5.3 11.8-11.8 11.8z"/><circle cx="125.7" cy="372.6" r="24.8" fill="#fff" opacity=".2"/><circle cx="113.3" cy="309.7" r="12.4" fill="#fff" opacity=".2"/><path fill="#a79ae8" d="M204.9 182.2h-31.6c-3.7 0-6.7-3-6.7-6.7V170c0-3.7 3-6.7 6.7-6.7h31.6c3.7 0 6.7 3 6.7 6.7v5.5c0 3.8-3 6.7-6.7 6.7zM267.7 197.9h-31.6c-3.7 0-6.7-3-6.7-6.7v-5.5c0-3.7 3-6.7 6.7-6.7h31.6c3.7 0 6.7 3 6.7 6.7v5.5c0 3.7-3 6.7-6.7 6.7zM142.4 228.6h-31.6c-3.7 0-6.7-3-6.7-6.7v-5.5c0-3.7 3-6.7 6.7-6.7h31.6c3.7 0 6.7 3 6.7 6.7v5.5c0 3.7-3 6.7-6.7 6.7zM329.9 173.8h-31.6c-3.7 0-6.7-3-6.7-6.7v-5.5c0-3.7 3-6.7 6.7-6.7h31.6c3.7 0 6.7 3 6.7 6.7v5.5c0 3.7-3 6.7-6.7 6.7zM392.4 187.8h-31.6c-3.7 0-6.7-3-6.7-6.7v-5.5c0-3.7 3-6.7 6.7-6.7h31.6c3.7 0 6.7 3 6.7 6.7v5.5c0 3.7-3 6.7-6.7 6.7z"/></svg>