<svg xmlns="http://www.w3.org/2000/svg" enable-background="new 0 0 64 64" viewBox="0 0 64 64"><path fill="#4e4e4e" d="M32,4C18.75,4,8,9.2800293,8,18.25C8,27.210022,20.0999756,60,32,60s24-32.789978,24-41.75
		C56,9.2800293,45.25,4,32,4z M41.7000122,23.8099976l-3.1500244,3.0500488
		c-0.1300049,0.1299438-0.1900024,0.3099976-0.1599731,0.4799805l0.7399902,4.3099976
		c0.1400146,0.7700195-0.1799927,1.539978-0.8099976,2c-0.3599854,0.2600098-0.7800293,0.3999634-1.210022,0.3999634
		c-0.3299561,0-0.6499634-0.0799561-0.9599609-0.2399902l-3.8900146-2.039978c-0.1600342-0.0800171-0.3599854-0.0800171-0.5200195,0
		l-3.8900146,2.039978c-0.6999512,0.3600464-1.539978,0.3000488-2.1699829-0.1599731s-0.9500122-1.2299805-0.8099976-2
		l0.7399902-4.3099976c0.0300293-0.1699829-0.0299683-0.3500366-0.1599731-0.4799805l-3.1500244-3.0500488
		c-0.5599976-0.5499878-0.7600098-1.3499756-0.5199585-2.0899658c0.2399902-0.75,0.8799438-1.2900391,1.6599731-1.4000244
		l4.3499756-0.6300049c0.1900024-0.0299683,0.3400269-0.1400146,0.4200439-0.2999878l1.9499512-3.9199829
		C30.5100098,14.7600098,31.210022,14.3300171,32,14.3300171s1.4899902,0.4299927,1.8400269,1.1400146l1.9499512,3.9199829
		c0.0800171,0.1599731,0.2300415,0.2700195,0.4200439,0.2999878l4.3499756,0.6300049
		c0.7800293,0.1099854,1.4199829,0.6500244,1.6599731,1.4000244C42.460022,22.460022,42.2600098,23.2600098,41.7000122,23.8099976z"/><path fill="#4e4e4e" d="M37.5,25.7800293c-0.4799805,0.4699707-0.7000122,1.1499634-0.5900269,1.8200073l0.7400513,4.3099976
		c0.0599976,0.2999878-0.1300049,0.4699707-0.210022,0.5299683C37.3499756,32.5,37.1300049,32.6300049,36.8499756,32.4800415
		l-3.8999634-2.0400391C32.6500244,30.2900391,32.3300171,30.210022,32,30.210022s-0.6599731,0.0800171-0.9500122,0.2299805
		l-3.8999634,2.0400391c-0.2700195,0.1499634-0.5,0.0199585-0.5900269-0.0400391
		c-0.0800171-0.0599976-0.2700195-0.2299805-0.210022-0.5299683l0.7400513-4.3099976
		C27.2000122,26.9299927,26.9799805,26.25,26.5,25.7800293l-3.1500244-3.0499878
		c-0.2199707-0.210022-0.1699829-0.460022-0.1399536-0.5500488c0.0299683-0.0999756,0.1399536-0.3299561,0.4400024-0.3800049
		l4.3599854-0.6299438c0.6699829-0.0900269,1.25-0.5100098,1.5499878-1.1100464L31.5,16.1400146
		c0.1400146-0.2799683,0.4000244-0.3099976,0.5-0.3099976s0.3599854,0.0300293,0.5,0.3099976l1.9400024,3.9199829
		c0.2999878,0.6000366,0.8800049,1.0200195,1.5499878,1.1100464l4.3599854,0.6299438
		c0.3000488,0.0500488,0.4100342,0.2800293,0.4400024,0.3800049c0.0300293,0.0900269,0.0800171,0.3400269-0.1399536,0.5500488
		L37.5,25.7800293z"/></svg>