<svg xmlns="http://www.w3.org/2000/svg" enable-background="new 0 0 47.5 47.5" viewBox="0 0 47.5 47.5"><defs><clipPath id="a"><path d="M0 38h38V0H0v38Z"/></clipPath></defs><g clip-path="url(#a)" transform="matrix(1.25 0 0 -1.25 0 47.5)"><path fill="#be1931" d="M0 0c3.462 1.154 6.117 3.034 6.12 9.373.002 4.011 4.266 8.472 4.265 12.551-.001 3.921-4.615 10.384-15.1 9.285-10.778-1.128-14.899-4.364-14.9-11.438-.001-4.926 5.304-8.38 8.127-13.517C-9.614 2.845-4.063-3.342 0 0" transform="translate(23.614 2.155)"/><path fill="#77b255" d="M0 0c-1.278 1.044-3.28 1.55-5.35 1.677.273.037.542.076.821.094.972.064 3.614 1.233 1.4 1.088-.969-.063-1.901-.259-2.837-.423.237.154.479.306.74.442-.026.694-4.026.694-6.045-.994-.512.112-.981.688-3.981.688-2 0-4.685-.926-3-1 .918-.04 2 0 1.858-.364-.655-.061-3.858-.636-3.858-1.636 0-.353 2.76.174 3 0-1.722-.643-3-2-3-3 0-.423 2.211.825 3 1-1-1-1.4-1.7-1.342-2.427.037-.475 2.387.09 2.632.169.822.27 3.71 1.258 4.6 2.724.117-.285 2.963-1.341 4.11-1.466.529-.058 2.62-.274 2.141.711-.141.289-1.141 1.289-1.446 2.264C-6.111-.434 1.748-1.428 0 0" transform="translate(27.252 33.428)"/><path fill="#f4abba" d="M0 0c-.136 1.46-2.54 3.252-2.331 1C-2.195-.459.209-2.251 0 0" transform="translate(10.339 19.694)"/><path fill="#f4abba" d="M0 0c-.069.622-.282 1.191-.687 1.671-.466.551-1.075.363-1.234-.316-.187-.798.082-1.751.606-2.371a.942.942 0 0 1 .041-.048L-1.916.509l.006-.047c.071-.64.397-1.73 1.136-1.906C-.02-1.626.051-.455 0 0" transform="translate(17.797 19.14)"/><path fill="#f4abba" d="M0 0c.476.955.17 3.962-.831 1.954C-1.307 1-1.002-2.008 0 0" transform="translate(23.549 23.982)"/><path fill="#f4abba" d="M0 0c-.03.357-.073.78-.391 1.01-1.189.858-2.38-2.36-1.384-3.08a.67.67 0 0 0 .054-.039l-.331.919a.44.44 0 0 1 .003-.052c.049-.564.376-1.377 1.084-.947C-.298-1.784.063-.746 0 0" transform="translate(30.76 25.439)"/><path fill="#f4abba" d="M0 0c1.016 1.569-.545 3.451-1.78 1.542C-2.796-.026-1.234-1.908 0 0" transform="translate(29.415 16.872)"/><path fill="#f4abba" d="M0 0c.173 1.937-2.309 2.752-2.51.496C-2.683-1.441-.201-2.256 0 0" transform="translate(23.667 13.977)"/><path fill="#f4abba" d="m0 0-.049-.004 1.362-.715c-.006.004-.011.011-.018.017C.989-.422-.058.381-.493-.11c-.44-.497.498-1.421.804-1.703.342-.314.928-.763 1.429-.73C3.178-2.45.958.062 0 0" transform="translate(13.77 15.19)"/><path fill="#f4abba" d="M0 0c.969 1.066.725 4.05-.798 2.376C-1.767 1.31-1.522-1.674 0 0" transform="translate(26.998 9.283)"/><path fill="#f4abba" d="M0 0c.093.005.187.012.28.019.703.046 1.004 1.454 1.042 1.952.044.571-.043 1.456-.785 1.406-.094-.005-.186-.012-.281-.018-.702-.047-1.004-1.454-1.042-1.952C-.83.836-.742-.05 0 0" transform="translate(13.599 23.247)"/><path fill="#f4abba" d="M0 0c.395-.764.252-1.623-.32-1.919-.573-.296-1.358.081-1.753.844-.395.763-.252 1.623.32 1.919C-1.181 1.14-.396.763 0 0" transform="translate(21.445 7.99)"/></g></svg>