<svg xmlns="http://www.w3.org/2000/svg" padding="2rem" viewBox="0 0 64 64"><g fill="#8d69f1" data-name="Question Mark"><path d="M32 56.735A24.735 24.735 0 1 1 56.736 32 24.764 24.764 0 0 1 32 56.735Zm0-46.47A21.735 21.735 0 1 0 53.736 32 21.76 21.76 0 0 0 32 10.265Z"/><path d="M32 44.97a2.015 2.015 0 0 1-2-2 1.722 1.722 0 0 1 .04-.39 1.643 1.643 0 0 1 .11-.38 2.329 2.329 0 0 1 .19-.341 2.174 2.174 0 0 1 .55-.549 1.589 1.589 0 0 1 .34-.19 1.757 1.757 0 0 1 .38-.11 1.994 1.994 0 0 1 1.8.55 1.419 1.419 0 0 1 .25.3 2.329 2.329 0 0 1 .19.341 1.643 1.643 0 0 1 .11.38 1.722 1.722 0 0 1 .04.39 2.015 2.015 0 0 1-2 2zm-7.3-19.141a1.5 1.5 0 0 1-1.368-2.1c.085-.192 2.159-4.7 8.669-4.7a1.5 1.5 0 0 1 0 3c-4.491 0-5.877 2.815-5.934 2.935a1.515 1.515 0 0 1-1.367.865z"/><path d="M32 38.9a1.5 1.5 0 0 1-1.5-1.5v-1.892c0-2.311 2.01-3.587 3.953-4.82 2.755-1.75 4.4-2.97 3.455-5.777-.18-.347-1.646-2.881-5.908-2.881a1.5 1.5 0 0 1 0-3c6.51 0 8.584 4.51 8.669 4.7.017.037.031.074.044.111 1.844 5.254-2.066 7.735-4.652 9.377-1.2.762-2.561 1.626-2.561 2.288V37.4a1.5 1.5 0 0 1-1.5 1.5Z"/></g></svg>