<svg xmlns="http://www.w3.org/2000/svg" viewBox="0 0 64 64" fill="#8d69f1"><path d="M56.52 22.29h-3.65a2.05 2.05 0 0 0-.73-.3l-2.41-.41-1.14-2.17c-.34-.64-.99-1.04-1.72-1.04s-1.38.4-1.72 1.04l-1.14 2.17-2.41.41c-.27.05-.51.16-.73.3h-2.62l1.73-1.77c.43-.44.67-1.02.67-1.63 0-1.14-.82-2.11-1.95-2.31l-3.15-.54-1.48-2.83a2.341 2.341 0 0 0-4.14 0l-1.48 2.83-3.15.54a2.332 2.332 0 0 0-1.95 2.31c0 .61.24 1.19.67 1.64l1.73 1.77h-2.62a2.05 2.05 0 0 0-.73-.3l-2.42-.41-1.14-2.17c-.34-.64-.99-1.04-1.72-1.04s-1.38.4-1.72 1.04l-1.14 2.17-2.41.41c-.27.05-.51.16-.73.3H7.47c-1.92 0-3.48 1.56-3.48 3.48v22.77c0 1.92 1.56 3.48 3.48 3.48h49.05c1.92 0 3.48-1.56 3.48-3.48V25.78c0-1.92-1.56-3.48-3.48-3.48Zm-11.68 1.18c.31-.05.57-.25.72-.52l1.29-2.54 1.33 2.54c.14.28.41.47.72.52l2.79.48-1.98 2.02c-.22.22-.32.54-.27.84l.41 2.8-2.54-1.25a.995.995 0 0 0-.89 0l-2.53 1.25.41-2.8c.04-.31-.06-.62-.27-.84l-1.98-2.02 2.79-.48Zm-19.49-4.58c0-.16.12-.31.28-.33l3.63-.62c.31-.05.57-.25.72-.52l1.71-3.26c.12-.22.49-.22.6 0L34 17.42c.14.28.41.47.72.52l3.63.62c.16.03.28.17.28.33 0 .09-.03.17-.1.24l-2.58 2.64c-.22.22-.32.53-.27.84l.54 3.7c0 .23-.28.41-.49.3l-3.3-1.64c-.14-.07-.29-.1-.44-.1s-.3.03-.44.1l-3.3 1.63c-.22.11-.5-.06-.49-.35l.53-3.65a.995.995 0 0 0-.27-.84l-2.58-2.64a.35.35 0 0 1-.1-.24ZM15.1 23.47c.31-.05.57-.25.72-.52l1.29-2.54 1.33 2.54c.15.28.41.47.72.52l2.79.48-1.98 2.02c-.22.22-.32.54-.27.84l.41 2.8-2.53-1.25c-.14-.07-.29-.1-.44-.1s-.3.03-.44.1l-2.53 1.25.41-2.8a.995.995 0 0 0-.27-.84l-1.98-2.02 2.79-.48Zm-7.62.82h2.84c.07.36.21.7.48.97l1.71 1.75-.36 2.44c-.01.09-.02.17-.02.26a1.942 1.942 0 0 0 2.8 1.74l2.2-1.09 2.19 1.09a1.942 1.942 0 0 0 2.8-1.74c0-.22 0-.19-.38-2.71l1.71-1.75c.26-.27.4-.61.48-.97h2.09l-.24 1.67c-.02.11-.03.23-.03.35a2.343 2.343 0 0 0 3.38 2.1l2.86-1.42 2.86 1.42a2.343 2.343 0 0 0 3.38-2.1c0-.12 0-.24-.03-.34l-.24-1.67h2.09c.07.36.21.7.48.97l1.71 1.75-.35 2.42c-.18 1.15.72 2.22 1.92 2.22.3 0 .59-.07.86-.2l2.2-1.09 2.19 1.08a1.942 1.942 0 0 0 2.8-1.74c0-.09 0-.18-.02-.28L51.48 27l1.71-1.75c.26-.27.4-.61.48-.97h2.84c.82 0 1.48.67 1.48 1.48v8.52H6v-8.52c0-.82.66-1.48 1.48-1.48Zm49.04 25.74H7.48c-.82 0-1.48-.67-1.48-1.48V36.3h52v12.25c0 .82-.67 1.48-1.48 1.48Z"/><path d="M11.34 42.92c-.28 0-.51-.23-.51-.51s.23-.51.51-.51c.18 0 .3.09.36.15a.996.996 0 1 0 1.41-1.41 2.68 2.68 0 0 0-.77-.52v-.17c0-.55-.45-1-1-1s-1 .45-1 1v.17c-.88.39-1.51 1.27-1.51 2.29 0 1.38 1.12 2.51 2.51 2.51.28 0 .51.23.51.51 0 .42-.57.65-.86.36a.996.996 0 1 0-1.41 1.41c.22.22.49.39.77.52v.17c0 .55.45 1 1 1s1-.45 1-1v-.17c.88-.39 1.51-1.27 1.51-2.29 0-1.38-1.12-2.51-2.51-2.51zm7.35-3.09c-.55 0-1 .45-1 1v6c0 .55.45 1 1 1s1-.45 1-1v-6c0-.55-.45-1-1-1zm4.46-.45c-1.49 0-2.71 1.21-2.71 2.71v3.04c0 1.49 1.21 2.71 2.71 2.71s2.71-1.21 2.71-2.71v-3.04c0-1.49-1.21-2.71-2.71-2.71zm.71 5.75c0 .4-.31.71-.71.71s-.71-.31-.71-.71v-3.04c0-.4.31-.71.71-.71s.71.31.71.71v3.04zm16.05-5.75c-1.49 0-2.71 1.21-2.71 2.71v3.04c0 1.49 1.21 2.71 2.71 2.71s2.71-1.21 2.71-2.71v-3.04c0-1.49-1.21-2.71-2.71-2.71zm.71 5.75c0 .4-.31.71-.71.71s-.71-.31-.71-.71v-3.04c0-.4.31-.71.71-.71s.71.31.71.71v3.04zm5.45-5.75c-1.49 0-2.71 1.21-2.71 2.71v3.04c0 1.49 1.21 2.71 2.71 2.71s2.71-1.21 2.71-2.71v-3.04c0-1.49-1.21-2.71-2.71-2.71zm.71 5.75c0 .39-.32.71-.71.71s-.71-.31-.71-.71v-3.04c0-.4.31-.71.71-.71s.71.32.71.71v3.04zm5.46-5.75c-1.49 0-2.71 1.21-2.71 2.71v3.04c0 1.49 1.21 2.71 2.71 2.71s2.71-1.21 2.71-2.71v-3.04c0-1.49-1.21-2.71-2.71-2.71zm.71 5.75c0 .39-.32.71-.71.71s-.71-.31-.71-.71v-3.04c0-.4.31-.71.71-.71s.71.32.71.71v3.04zm-23.64-5.75c-1.49 0-2.71 1.21-2.71 2.71v3.04c0 1.49 1.21 2.71 2.71 2.71s2.71-1.21 2.71-2.71v-3.04c0-1.49-1.21-2.71-2.71-2.71zm.71 5.75c0 .4-.31.71-.71.71s-.71-.32-.71-.71v-3.04c0-.39.32-.71.71-.71s.71.31.71.71v3.04zm4.59.65c-.46 0-.84.38-.84.84s.38.84.84.84.84-.38.84-.84-.38-.84-.84-.84zm-8.48-13.14h11.74c.55 0 1-.45 1-1s-.45-1-1-1H26.13c-.55 0-1 .45-1 1s.45 1 1 1z"/></svg>