<svg xmlns="http://www.w3.org/2000/svg" viewBox="0 0 47.5 47.5"><defs><clipPath id="a"><path d="M0 38h38V0H0v38Z"/></clipPath></defs><g clip-path="url(#a)" transform="matrix(1.25 0 0 -1.25 0 47.5)"><path fill="#77b255" d="M26.999 13a.996.996 0 0 0-.572.181c-6.543 4.58-12.166 12.366-15.397 17.439 1.698-10.529.997-16.458.962-16.744a1 1 0 0 0-1.985.247c.01.079.936 8.033-1.986 21.668a1 1 0 0 0 1.861.68c.079-.148 8.007-14.872 17.691-21.652A.998.998 0 0 0 26.999 13"/><path fill="#5c913b" d="M27.547 28.182c-3.476-.96-5.051-2.546-10.75-.667-4.72 1.557-7.037 4.207-6.345 6.305.692 2.097 3.18 3.163 7.901 1.606 4.749-1.566 4.123-3.465 9.194-7.244"/><path fill="#be1931" d="M35 9a8 8 0 1 0-16 0 8 8 0 0 0 16 0"/><path fill="#be1931" d="M20 9A8 8 0 1 0 4 9a8 8 0 0 0 16 0"/></g></svg>