<svg xmlns="http://www.w3.org/2000/svg" viewBox="0 0 52 52" width="30px" height="30px"><g fill="none" stroke="#000" stroke-linecap="round" stroke-linejoin="round" stroke-miterlimit="10" stroke-width="2"><path d="M45.725 32.27a8.543 8.543 0 00-8.543 8.543M37.182 15.459a8.543 8.543 0 008.543 8.543M2 24.002a8.543 8.543 0 008.543-8.543M10.543 40.813A8.543 8.543 0 002 32.27"/></g><g fill="none" stroke="#000" stroke-linecap="round" stroke-linejoin="round" stroke-miterlimit="10" stroke-width="2"><path d="M2 15.459h43.725v25.354H2zM27.127 24.872a3.264 3.264 0 10-3.265 3.264M20.598 31.4a3.264 3.264 0 103.264-3.264M23.862 20.298v15.676"/></g><path fill="none" stroke="#000" stroke-linecap="round" stroke-linejoin="round" stroke-miterlimit="10" stroke-width="2" d="M45.728 36.538H50V11.187H6.275v4.272"/><g fill="none" stroke="#000" stroke-linecap="round" stroke-linejoin="round" stroke-miterlimit="10" stroke-width="2"><path d="M45.725 32.27a8.543 8.543 0 00-8.543 8.543M37.182 15.459a8.543 8.543 0 008.543 8.543M2 24.002a8.543 8.543 0 008.543-8.543M10.543 40.813A8.543 8.543 0 002 32.27"/></g><g fill="none" stroke="#000" stroke-linecap="round" stroke-linejoin="round" stroke-miterlimit="10" stroke-width="2"><path d="M2 15.459h43.725v25.354H2zM27.127 24.872a3.264 3.264 0 10-3.265 3.264M20.598 31.4a3.264 3.264 0 103.264-3.264M23.862 20.298v15.676"/></g><path fill="none" stroke="#000" stroke-linecap="round" stroke-linejoin="round" stroke-miterlimit="10" stroke-width="2" d="M45.728 36.538H50V11.187H6.275v4.272"/></svg>