<svg xmlns="http://www.w3.org/2000/svg" data-name="Layer 1" viewBox="0 0 512 512"><path fill="#fed030" d="M282.5 231a7.5 7.5 0 0 1-6.956-10.305l75-186A7.5 7.5 0 0 1 357.5 30h55.865a29.758 29.758 0 0 1 29.378 34.495l-5.616 34.82A156.626 156.626 0 0 1 282.5 231zm80.063-186-68.77 170.548A141.623 141.623 0 0 0 422.318 96.926l5.617-34.82A14.758 14.758 0 0 0 413.365 45zM229.5 231A156.626 156.626 0 0 1 74.873 99.315l-5.616-34.82A29.758 29.758 0 0 1 98.635 30H154.5a7.5 7.5 0 0 1 6.956 4.695l75 186A7.5 7.5 0 0 1 229.5 231zM98.635 45a14.758 14.758 0 0 0-14.57 17.106l5.617 34.82a141.623 141.623 0 0 0 128.525 118.622L149.437 45z"/><rect width="254" height="35" x="129" y="469.5" fill="#787681" rx="10"/><path fill="#57565c" d="M373 469.5h-45a10 10 0 0 1 10 10v15a10 10 0 0 1-10 10h45a10 10 0 0 0 10-10v-15a10 10 0 0 0-10-10Z"/><path fill="#8b8893" d="M169 389.5h174a10 10 0 0 1 10 10v70H159v-70a10 10 0 0 1 10-10Z"/><path fill="#787681" d="M343 389.5h-45a10 10 0 0 1 10 10v70h45v-70a10 10 0 0 0-10-10Z"/><path fill="#fddd5a" d="M278 294.5a112.92 112.92 0 0 0 9.626 40.95C302.01 367.64 327.717 383.788 338 389.5H174c10.283-5.713 35.99-21.861 50.374-54.05A112.92 112.92 0 0 0 234 294.5Z"/><path fill="#fed030" d="M287.626 335.45A112.92 112.92 0 0 1 278 294.5h-30a112.92 112.92 0 0 0 9.626 40.95C272.01 367.64 297.717 383.788 308 389.5h30c-10.283-5.713-35.99-21.861-50.374-54.05Z"/><rect width="79" height="35" x="216.5" y="259.5" fill="#f69531" rx="17.5"/><path fill="#f48a31" d="M278 259.5h-30a17.5 17.5 0 0 1 0 35h30a17.5 17.5 0 0 0 0-35Z"/><path fill="#fddd5a" d="M361.496 154.513c-27.144 61.358-72.43 93.517-90.496 105h-30c-18.066-11.483-63.352-43.642-90.496-105-23.721-53.619-21.815-102.922-17.883-130.775A18.923 18.923 0 0 1 151.38 7.5H360.62a18.923 18.923 0 0 1 18.758 16.238c3.932 27.853 5.838 77.156-17.883 130.775Z"/><path fill="#fed030" d="M379.378 23.737A18.922 18.922 0 0 0 360.622 7.5h-45a18.922 18.922 0 0 1 18.756 16.237c3.933 27.854 5.84 77.157-17.882 130.776A240.608 240.608 0 0 1 233.5 254.538a234.205 234.205 0 0 0 7.5 4.975h30c18.066-11.483 63.352-43.642 90.496-105 23.721-53.619 21.815-102.922 17.882-130.776Z"/></svg>