<svg xmlns="http://www.w3.org/2000/svg" data-name="Layer 1" viewBox="0 0 512 512"><path fill="#e5303e" d="M504.35784,274.785v15.72a146.20509,146.20509,0,0,1-146.2,146.2h-23.6001a145.49871,145.49871,0,0,1-53.15991-9.98c-1.59009-.61987-3.16992-1.26-4.74-1.93994a146.23329,146.23329,0,0,1-88.3-134.28v-15.72A103.613,103.613,0,0,1,291.96771,171.17493H400.748A103.613,103.613,0,0,1,504.35784,274.785Z"/><path fill="#37b678" d="M422.50775,211.62512a50.76737,50.76737,0,0,1,7.32007,23.52979c-2.76.43018-23.06006,3.40015-40.95-3.02979-.31006-.11011-.62988-.23-.93994-.3501-.33008-.12012-.65015-.25-.97021-.37988-.36987-.14014-.73975-.3-1.09985-.4502-.45-.18994-.88989-.38989-1.33008-.59985-.85986-.39014-1.7-.81006-2.53-1.26-.24-.13013-.49-.26-.73-.3999-.32983-.18018-.6499-.37012-.96-.56006a.33621.33621,0,0,1-.1001-.06006c-.30981-.18018-.61987-.37012-.91992-.57007-.58008-.36011-1.15991-.74-1.72-1.13989-.34009-.24-.67993-.49-1.02-.74A34.80847,34.80847,0,0,1,366.248,213.535a34.96535,34.96535,0,0,1-10.32007,12.08008c-19.33008,14.51978-49.84009,10.07983-53.27,9.53979A44.622,44.622,0,0,1,336.03777,188.735a38.56592,38.56592,0,0,1-24.15991-12.29,36.26594,36.26594,0,0,1-3.91992-5.27,40.36545,40.36545,0,0,1-5.3501-24.88989c.02-.13989.04-.26.05-.36011,3.09985-.48975,28.26-4.1499,47.34985,5.82007a40.31319,40.31319,0,0,1-2.60986-22.41992,39.05027,39.05027,0,0,1,4.6001-12.63989q18.375-1.155,36.76978-2.30029a67.29415,67.29415,0,0,0-3.45,11.49023c-.8501,4.13989-1.5,7.31982-1.1499,11.49a29.8153,29.8153,0,0,0,3.45,11.49,98.19108,98.19108,0,0,1,42.21-2.93018,50.73547,50.73547,0,0,1-7.32007,23.52,51.83554,51.83554,0,0,1-25.42993,20.99023v.21A51.73551,51.73551,0,0,1,422.50775,211.62512Z"/><path fill="#e5303e" d="M123.52561,138.81452H245.19007A115.88346,115.88346,0,0,1,361.07353,254.698v17.58054A163.51653,163.51653,0,0,1,197.557,435.795h-26.3983A163.51653,163.51653,0,0,1,7.64216,272.27851V254.698A115.88346,115.88346,0,0,1,123.52561,138.81452Z"/><path fill="#37b678" d="M218.71919,160.588v-.23909a57.93154,57.93154,0,0,0,28.4452-23.46723,56.85876,56.85876,0,0,0,8.17812-26.31187,109.66358,109.66358,0,0,0-47.20838,3.28141,33.31628,33.31628,0,0,1-3.85561-12.852c-.39661-4.66059.33448-8.22111,1.2852-12.852a75.74333,75.74333,0,0,1,3.85562-12.852q-20.56344,1.28513-41.12656,2.57041A43.78544,43.78544,0,0,0,163.152,92.00271a45.07871,45.07871,0,0,0,2.92183,25.07734c-21.35053-11.15565-49.49294-7.05545-52.95729-6.51027-.34483,2.58688-2.36552,19.9792,10.31145,34.13418a43.10509,43.10509,0,0,0,27.02288,13.75053,49.89451,49.89451,0,0,0-37.33433,51.91243c3.83742.604,37.95622,5.57288,59.581-10.667a38.9753,38.9753,0,0,0,11.532-13.51144A38.97051,38.97051,0,0,0,195.76121,199.7c21.62508,16.23983,55.74388,11.271,59.5813,10.667a56.85827,56.85827,0,0,0-8.17812-26.31172A57.93154,57.93154,0,0,0,218.71919,160.588Z"/><path d="M431.74414,168.07568a58.56209,58.56209,0,0,0,5.57324-21.71631,7.50026,7.50026,0,0,0-6.38623-7.85352,105.63032,105.63032,0,0,0-38.76221,1.42676,21.22593,21.22593,0,0,1-.52539-3.19531c-.26025-3.10059.22266-5.45508,1.02295-9.35254a60.05679,60.05679,0,0,1,3.06592-10.21191,7.50009,7.50009,0,0,0-7.43262-10.27344l-36.77,2.2998a7.49924,7.49924,0,0,0-6.03906,3.75977,46.24138,46.24138,0,0,0-6.01953,26.93262c-17.1001-4.23926-34.03174-1.999-37.98242-1.375a7.48182,7.48182,0,0,0-5.3501,3.74731,122.46714,122.46714,0,0,0-38.09888-10.28271,64.90514,64.90514,0,0,0,4.79224-20.97534,7.50043,7.50043,0,0,0-6.38135-7.85449,117.13166,117.13166,0,0,0-43.86768,1.77539,24.70762,24.70762,0,0,1-.8291-4.56348c-.30469-3.5791.27734-6.415,1.15869-10.707a68.58563,68.58563,0,0,1,3.47461-11.582,7.49967,7.49967,0,0,0-7.43359-10.26465l-41.12646,2.57031a7.50106,7.50106,0,0,0-6.0415,3.75977,50.87419,50.87419,0,0,0-6.49512,30.85742c-19.332-5.1084-38.854-2.541-43.3374-1.83691a7.50036,7.50036,0,0,0-6.26855,6.41895,53.39829,53.39829,0,0,0,2.16919,22.73413A123.38483,123.38483,0,0,0,.14014,254.69531v17.58008c0,94.30078,76.71924,171.01953,171.02,171.01953h26.3999a170.029,170.029,0,0,0,69.40381-14.731,154.25194,154.25194,0,0,0,67.59619,15.64111h23.6001c84.75049,0,153.69971-68.94922,153.69971-153.7002V274.78516A111.14845,111.14845,0,0,0,431.74414,168.07568Zm-85.20605-9.68213a7.50023,7.50023,0,0,0,10.39258-9.53809,32.70855,32.70855,0,0,1-2.144-18.23145,31.04726,31.04726,0,0,1,1.99121-6.72363l21.59229-1.35059q-.21021.90674-.397,1.81738c-.88379,4.30469-1.71826,8.37012-1.27539,13.6416a37.33179,37.33179,0,0,0,4.29785,14.36328,7.50373,7.50373,0,0,0,8.74121,3.67871,90.65423,90.65423,0,0,1,31.61279-3.498,42.696,42.696,0,0,1-5.249,12.99707c-.61084,1.00488-1.28564,2.00781-2.01807,2.99609a44.98147,44.98147,0,0,1-19.709,14.89453,7.49849,7.49849,0,0,0-4.79346,6.99414v.21a7.49915,7.49915,0,0,0,4.813,7.002,44.14125,44.14125,0,0,1,21.7207,17.89551,42.68034,42.68034,0,0,1,5.23389,12.96875c-10.11328.64941-28.126.23926-40.28418-8.89258a27.47676,27.47676,0,0,1-8.13037-9.4873,7.50029,7.50029,0,0,0-6.67236-4.0957H366.25a7.49275,7.49275,0,0,0-6.23267,3.34766,123.08911,123.08911,0,0,0-27.323-41.6748A124.62343,124.62343,0,0,0,314.27,152.42725C323.18726,152.14355,336.07617,152.92944,346.53809,158.39355ZM162.603,123.72754a7.50009,7.50009,0,0,0,10.39307-9.54A37.42972,37.42972,0,0,1,170.54,93.30664a35.87235,35.87235,0,0,1,2.501-8.22363l25.896-1.61816q-.39111,1.582-.71777,3.1748c-1.01953,4.96484-1.8999,9.25391-1.41162,14.99512a40.82966,40.82966,0,0,0,4.70264,15.73047,7.499,7.499,0,0,0,8.74756,3.67969,102.16443,102.16443,0,0,1,36.68457-3.87793,48.77743,48.77743,0,0,1-6.17334,15.80078,50.34126,50.34126,0,0,1-24.73779,20.37988,7.5,7.5,0,0,0-4.81006,7.001v.23926a7.501,7.501,0,0,0,4.80908,7.001,50.34993,50.34993,0,0,1,24.73828,20.37988A48.7639,48.7639,0,0,1,246.93848,203.75c-11.21045.81348-32.438.6416-46.67139-10.04687a31.65406,31.65406,0,0,1-9.35449-10.92285,7.5,7.5,0,0,0-13.3623.001,31.648,31.648,0,0,1-9.354,10.92188c-14.61035,10.9707-36.58838,10.8623-47.53809,9.98047a42.23823,42.23823,0,0,1,31.6875-37.97266A7.4995,7.4995,0,0,0,151.269,150.999a34.26842,34.26842,0,0,1-30.94238-33.71484C129.83887,116.49609,148.25684,116.23242,162.603,123.72754Zm34.957,304.56738h-26.3999c-86.02979,0-156.02-69.99023-156.02-156.01953V254.69531A107.96281,107.96281,0,0,1,115.31055,146.63574q1.17664,1.5509,2.53271,3.07227a48.3484,48.3484,0,0,0,12.36963,9.91113,56.63846,56.63846,0,0,0-12.71436,12.02344A58.72542,58.72542,0,0,0,105.63574,210.874a7.50064,7.50064,0,0,0,6.31787,6.90234c6.78711,1.06738,41.83643,5.502,65.24951-12.0791a49.1488,49.1488,0,0,0,7.02832-6.4043,49.11763,49.11763,0,0,0,7.02832,6.4043c14.58838,10.95508,33.69385,13.3623,47.666,13.3623a117.26034,117.26034,0,0,0,17.584-1.2832,7.5,7.5,0,0,0,6.32227-7.8457,64.42321,64.42321,0,0,0-9.26807-29.79,63.71073,63.71073,0,0,0-18.95459-19.67187,64.32354,64.32354,0,0,0,15.06836-14.0459c57.63379,2.36426,103.90234,50.15381,103.90234,108.27246v17.58008C353.58008,358.30469,283.58984,428.29492,197.56006,428.29492Zm299.2998-137.79c0,76.47949-62.22021,138.7002-138.69971,138.7002h-23.6001a137.33094,137.33094,0,0,1-50.4707-9.47095,171.10054,171.10054,0,0,0,84.49072-147.45874V254.69531a124.329,124.329,0,0,0-3.0752-27.5459c.24268-.24609.50073-.48047.73633-.73145a45.0333,45.0333,0,0,0,5.81445,5.19434c13.21924,9.92871,30.49414,12.10742,43.10986,12.10742a105.54781,105.54781,0,0,0,15.83105-1.15527,7.50064,7.50064,0,0,0,6.3208-7.84277,58.32566,58.32566,0,0,0-8.40869-27.00879,57.57682,57.57682,0,0,0-16.19922-17.166,57.98409,57.98409,0,0,0,10.34985-9.25732,96.11818,96.11818,0,0,1,73.80054,93.49561Z"/></svg>